<svg width="200" height="200" viewBox="0 0 200 200" fill="none" xmlns="http://www.w3.org/2000/svg">
<g clip-path="url(#clip0_44_373)">
<path d="M104.787 146.721C105.133 149.213 107.713 150.426 109.548 149.312C111.383 148.197 115.958 143.508 116.117 142.984C116.277 142.459 116.064 141.377 116.489 140.82C116.915 140.262 118.75 139.607 119.282 138.689L181.649 67.705L199.468 78.8525L84.4416 187.541L0.531982 133.443L39.6277 96.7213V105.41C39.6277 105.705 40.3192 106.59 40.5852 106.852C43.032 108.918 44.7075 106.656 46.6756 104.951C47.3671 105.738 47.7128 106.885 48.5639 107.508C49.415 108.131 50.6118 108.033 50.9841 108.295C51.3564 108.557 51.383 109.279 51.8618 109.672C52.766 110.459 53.7501 110.23 54.4947 110.689C55.2394 111.148 56.3299 112.623 56.383 112.951C56.4894 113.607 56.3299 114.393 56.383 115.082C55.3458 114.328 54.3618 113.803 53.1118 114.164C47.2341 119.18 41.2501 124.23 35.5586 129.541C29.8671 134.852 31.3299 132.656 33.4309 135.672C41.1437 140.557 48.6171 146.262 56.383 150.984C58.0852 152 59.2022 152.787 61.1437 151.607L77.9256 136.721V143.771C77.9256 144.426 79.5213 144.426 79.5213 143.771V135.246C79.5213 135.016 81.4894 134.262 80.7979 131.377C80.4256 129.836 75.8245 128.098 75.399 127.213C74.9735 126.328 75.3192 125.016 76.1969 125.246C77.0745 125.475 77.0479 126.393 77.7394 126.951C78.4309 127.508 79.5745 127.574 80.3192 128.033C81.0639 128.492 81.4096 129.41 82.3139 129.836C83.2182 130.262 83.6437 130 83.9894 130.23C84.3352 130.459 84.2554 130.918 84.6543 131.213C85.7447 132.033 86.649 132.066 87.5001 132.623C88.3511 133.18 88.3511 133.836 89.0958 134.262C89.8405 134.689 90.5054 134.557 91.0639 134.787C91.6224 135.016 91.8352 136.033 92.6065 136.492C93.3777 136.951 94.1224 136.852 94.7075 137.18C95.9043 137.869 96.4628 138.557 98.1916 139.443C99.9203 140.328 99.7873 141.475 102.234 140.492C104.681 139.508 103.803 139.016 104.84 138.951C105.08 141.279 104.521 144.459 104.84 146.656L104.787 146.721Z" fill="#E90F89"/>
<path d="M116.755 99.0164L116.995 90.6886C116.702 89.6394 115.479 90.3935 114.867 90.2951C112.899 90 112.633 86 114.787 85.5738C116.941 85.1476 116.622 85.9344 116.995 85.0164C117.154 84.4263 117.154 75.4426 117.021 74.5902C116.888 73.7377 115.346 72.6886 115.452 72L141.569 42.6558L144.388 44.2623C143.803 47.0492 143.404 48.0984 145.558 49.8689C147.58 51.5082 150.505 52.5902 151.356 48.8525C151.622 48.7213 151.888 48.8525 152.128 48.9836C152.872 49.2787 158.856 53.1148 159.282 53.6066C160.293 54.7869 159.761 57.5738 161.702 59.4754C163.644 61.3771 167.154 63.3443 167.527 59.0164L173.91 63.1148L115.505 129.475C113.351 127.082 110.904 126.852 108.484 128.852C108.564 127.312 108.191 125.082 107.154 124.098C106.117 123.115 105.558 123.574 105.106 123.18C104.654 122.787 104.521 121.902 103.511 121.41C101.915 120.623 102.314 120.984 100.957 119.803C99.601 118.623 98.4574 119.016 97.8989 118.623C97.3404 118.23 97.4468 117.574 96.8616 117.115C95.8776 116.328 94.9733 116.656 94.3882 116.23C93.8031 115.803 93.4308 114.82 92.3404 114.164C91.2499 113.508 90.3723 112.787 89.2553 112.066C88.1382 111.344 87.3404 111.639 86.9946 111.41C86.6489 111.18 86.7287 110.623 86.4095 110.328C84.867 108.787 83.4308 109.771 82.3936 107.377L90.2925 99.082L100.878 99.0164C102.128 98.7213 101.303 96.2623 103.537 96.3607C105.425 96.4263 105.346 99.0164 105.931 99.0164H116.702H116.755Z" fill="#E90F89"/>
<path d="M85.3723 200V189.18C90.0266 185.18 94.6276 180.82 99.1755 176.525L200 81.3115V91.9673L104.495 182.426L85.3723 200Z" fill="#E90F89"/>
<path d="M83.5106 200L0 145.902V135.41L83.5106 189.672V200Z" fill="#E90F89"/>
<path d="M38.9362 82.7541C56.649 61.2787 74.2554 39.6394 91.782 17.9017C95 13.9017 102.66 2.59019 106.41 0.852482C110.16 -0.885224 111.064 -0.327846 113.325 0.852482L147.633 22.8197L144.601 26.5902L143.59 26.8525L111.835 6.62297C110.665 5.86888 109.548 5.96724 108.351 6.52461C86.0905 32.7541 64.6809 60.2295 42.7128 86.9181C42.2075 88.3607 41.1703 89.541 40.6383 90.9181C40.1596 92.1312 40.0798 93.3771 39.5479 94.4918C36.7288 91.2787 36.4096 86.3935 38.9894 82.8197L38.9362 82.7541Z" fill="#E90F89"/>
<path d="M110.133 139.639C109.654 138.689 110.505 135.082 111.277 134.426C112.048 133.771 113.245 133.803 114.096 133.312C115.319 132.59 116.17 131.246 117.287 130.361C137.979 105.705 160.186 82.9181 180.718 58.0656C182.527 55.9017 185.479 53.5082 182.261 50.8853L151.596 31.4754C151.489 30.9509 151.755 30.8197 151.995 30.4918C152.234 30.164 154.628 27.4754 154.814 27.3771C155.186 27.1476 155.505 27.1476 155.878 27.3771C164.947 33.8689 175 38.5246 183.989 45.2132C187.101 47.541 189.202 50.3279 188.537 55.1804C187.872 60.0328 186.224 59.8689 184.761 61.6722C163.803 87.2459 140.718 110.361 119.575 135.738C117.075 138.459 113.644 140.951 110.186 139.639H110.133Z" fill="#E90F89"/>
<path d="M79.2554 132.131C79.3352 132.754 78.9097 133.082 78.5905 133.443C77.4469 134.689 75.5852 136.164 74.282 137.312C70.2926 140.951 65.8777 145.148 61.782 148.459C61.0639 149.049 60.0001 150.164 59.1756 150.164L34.3086 133.574L53.8831 116.033L79.2554 132.098V132.131Z" fill="#E90F89"/>
<path d="M133.777 39.0164L109.947 65.541L93.3777 46.7541L114.84 26.6558C121.223 29.9672 127.367 34.3279 133.537 38.2295L133.803 39.0492L133.777 39.0164Z" fill="#E90F89"/>
<path d="M81.25 76.0655C82.101 75.7377 80.7978 73.0164 82.5798 72.7869C84.3617 72.5574 82.9521 75.7377 84.7074 76.0655H98.3776C98.8564 80.8196 103.298 83.3115 106.489 80.3278C109.681 77.3442 107.952 77.7377 108.617 76.0655H115.399V83.2787C111.543 82.9836 110.213 89.6721 113.351 91.8688C116.489 94.0656 115.213 92.4262 115.372 92.9836C115.319 93.8688 115.745 96.6885 114.973 96.9836H107.287C106.622 96.8852 106.197 95.377 105.399 94.7869C103.298 93.2787 100.957 94.3278 100.08 97.0492L73.6436 96.8852L73.4308 92.3278L73.6436 91.9344C77.8989 91.8033 79.1223 84.5574 75.1861 82.5246C71.25 80.4918 73.8298 82.459 73.4042 81.7705V76.0328H81.25V76.0655ZM91.4096 87.0164C88.6968 83.6721 84.7872 88.8197 87.3404 92.0328C89.9734 95.3442 94.1223 90.3278 91.4096 87.0164Z" fill="#E90F89"/>
<path d="M114.096 74.0984H108.245C106.862 67.9345 99.9203 68.0984 98.2182 74.0984H85.7714C85.5054 69.541 79.8139 69.5738 79.7607 74.0984H73.9097L80.2926 62.4591C82.9256 62.8197 85.7182 63.2132 86.4895 59.3115C87.2607 55.4099 85.0267 55.4427 85.1065 54.6886C86.8352 52.0656 88.1118 48.7214 90.7448 47.3115L114.069 74.1312L114.096 74.0984ZM94.8671 58.4591C91.0905 59.3115 92.4203 66.0656 96.0639 65.541C99.7075 65.0164 99.7075 57.3771 94.8671 58.4591Z" fill="#E90F89"/>
<path d="M78.9895 99.0165L75.5054 102.82C74.681 101.574 73.4576 101.934 72.6065 101.475C71.7554 101.016 71.4629 99.7378 70.3991 99.2787C69.3352 98.8197 68.9895 99.1476 68.6171 98.8525C68.2448 98.5574 68.0852 97.4427 66.9416 96.9837C65.798 96.5246 65.5852 96.8525 65.1331 96.5574C64.681 96.2624 64.2023 95.1148 63.0852 94.4919C61.9682 93.8689 61.1437 93.1476 60.0001 92.3935C58.8565 91.6394 58.0586 91.9673 57.7395 91.7378C57.4203 91.5083 57.5267 91.0492 57.2874 90.8197C55.1597 88.8525 53.4842 89.246 51.3033 90.8197L50.2129 86.7542L83.4842 56.1968C86.1171 57.9345 84.6544 61.4099 81.782 60.5902C78.9097 59.7706 80.4257 58.9837 79.6012 60.0001L71.8618 74.0656L71.782 84.0328L72.181 84.5574C74.5214 83.3771 76.915 85.8033 75.4257 88.623C74.3618 90.623 73.1916 89.1804 71.7289 89.8033V98.164C71.7289 98.2296 72.3406 98.9837 72.3937 98.9837H78.9097L78.9895 99.0165Z" fill="#E90F89"/>
<path d="M160.106 27.541C159.761 28 156.011 24.4918 155.053 24.7213C154.096 24.9508 147.713 32.9508 146.277 34.5901C144.84 36.2295 142.128 38.8852 140.16 41.1475C131.543 50.8524 123.059 60.7541 114.362 70.3279C113.644 71.0492 111.144 67.377 111.197 67.082L150.532 22.459C155.346 16.5901 160.931 18.5246 160.106 27.541Z" fill="#E90F89"/>
<path d="M73.6702 125.902L58.2181 115.902C58.5904 113.016 57.4468 102.82 59.1223 101.082C60.7979 99.3442 60.9308 100.328 61.7553 100.754C63.8032 101.77 69.8936 105.541 71.516 107.082C72.2074 107.77 73.6702 109.967 73.6702 110.984V125.902ZM70.7447 119.344V111.311L61.7021 105.377L61.1702 105.738V113.279L70.7447 119.344Z" fill="#E90F89"/>
<path d="M154.787 35.7377C155.558 36.8852 158.112 37.5082 158.776 38.1967C159.441 38.8852 159.016 39.3442 159.308 39.836C159.893 40.8852 161.25 42 161.968 43.1147C163.963 46.1639 165.213 50.4262 165.665 54.295C166.117 58.1639 166.276 59.6393 165.558 59.6721C164.707 58.8196 163.058 58.4262 162.34 57.4098C161.622 56.3934 161.117 52.3934 160.558 50.7541C160 49.1147 159.362 47.6065 158.511 46.3934C157.659 45.1803 154.787 43.0819 154.787 42.1311V35.7377Z" fill="#E90F89"/>
<path d="M87.5001 99.0164L75.532 112.459C75.4522 110.59 75.0533 108.82 74.3086 107.213L81.516 99.0164H87.5001Z" fill="#E90F89"/>
<path d="M114.362 141.639C114.362 142.098 114.441 142.262 114.175 142.623C113.803 143.148 109.574 146.885 108.963 147.246C108.351 147.607 107.154 148.033 106.702 147.148C106.25 146.262 106.622 137.541 106.782 136.361C107.261 132.688 111.037 126.918 113.83 130.984C113.138 132.295 112.021 131.508 110.984 132.066C109.947 132.623 108.537 135.508 108.324 136.984C107.553 142.59 110.957 142.459 114.388 141.672L114.362 141.639Z" fill="#E90F89"/>
<path d="M49.468 91.1476C48.2446 91.0492 47.7392 89.7377 46.4095 89.8033C43.8031 89.9345 41.2233 97.2459 44.1488 99.8033C45.2924 100.787 46.9946 100.426 46.4626 102.393C46.2233 103.246 41.5158 107.607 41.1701 104.131C40.9307 101.738 41.0105 95.3115 41.5956 93.1476C42.8456 88.3935 48.1116 84.2295 49.4414 91.1804L49.468 91.1476Z" fill="#E90F89"/>
<path d="M152.926 37.3771L153.165 42.7213C150.825 44.1967 150.319 46.6886 149.202 49.3771L145.479 47.541C146.383 42.6886 148.484 37.9672 152.926 37.3771Z" fill="#E90F89"/>
<path d="M103.112 71.6065C107.899 71.4426 108.059 80.0984 102.793 79.377C98.8299 78.8197 99.1756 71.7377 103.112 71.6065Z" fill="#E90F89"/>
<path d="M105.053 136.721L99.7607 133.246L101.862 128.328L106.649 131.311C105.878 132.984 105.106 134.721 105.053 136.689V136.721Z" fill="#E90F89"/>
<path d="M55.8511 92.7869C52.234 94.7869 50 100.82 50.266 105.574C48.2447 105.902 48.2447 102.295 48.4308 100.525C48.7766 97.2787 52.234 90.623 55.3989 91.8689C58.5638 93.1148 55.9042 92.3279 55.8511 92.7869Z" fill="#E90F89"/>
<path d="M59.5745 95.082C56.1436 96.9836 54.2287 102.066 53.7234 106.459C53.6702 106.918 53.7766 107.311 53.9362 107.738L53.3511 108.164C50.8511 106.295 52.367 100.721 53.6968 98.1967C55.0266 95.6721 57.8458 92.2623 59.5479 95.082H59.5745Z" fill="#E90F89"/>
<path d="M85.1063 112.459C81.4893 114.59 79.2552 120.426 79.5212 125.246C78.7499 125.41 78.1648 124.623 77.8989 123.803C76.5957 119.672 80.7978 110.033 84.6542 111.541C88.5106 113.049 85.1595 112 85.1063 112.459Z" fill="#E90F89"/>
<path d="M88.8297 114.754C86.0105 116.262 83.6701 120.787 83.2712 124.459C82.8722 128.131 83.2712 126.197 83.2446 127.049C83.218 127.902 83.4307 128.066 82.8456 127.869C81.1967 127.311 81.2233 123.869 81.4361 122.229C81.835 119.049 85.9307 111.344 88.8297 114.754Z" fill="#E90F89"/>
<path d="M103.457 123.607C100.532 126.098 98.3777 129.443 97.8724 133.934C97.3671 138.426 98.1117 137.344 97.4734 137.377C93.3777 133.607 98.3777 121.41 103.457 123.607Z" fill="#E90F89"/>
<path d="M92.2871 116.393C92.3935 116.951 92.1542 117.049 91.8882 117.377C89.0425 120.787 87.0478 122.984 86.702 128.393C86.3563 133.803 87.3403 130.459 86.5957 130.164C84.7871 129.475 84.9733 126.361 85.1861 124.525C85.585 121.082 89.0159 114.951 92.2871 116.393Z" fill="#E90F89"/>
<path d="M90.4254 132.459C87.5531 131.639 88.6967 126.459 89.5744 124.033C90.452 121.672 93.8031 116.787 96.0106 119.18C92.3935 122.066 90.1595 127.082 90.4254 132.459Z" fill="#E90F89"/>
<path d="M94.149 134.754C92.1012 134.689 92.1278 131.279 92.3405 129.41C92.7927 125.934 96.0639 119.607 99.4682 121.115C99.9203 121.541 99.5746 121.574 99.282 121.902C98.4309 122.82 97.6331 123.18 96.8086 124.426C94.8937 127.213 93.8565 131.115 94.149 134.754Z" fill="#E90F89"/>
<path d="M48.9363 93.4427L47.0746 99.0164L44.7341 97.6394C44.2288 96.6558 45.5586 93.082 46.2767 92.2623L48.9363 93.4427Z" fill="#E90F89"/>
<path d="M75.532 115.246L80.8511 109.344L81.383 110C78.6703 111.705 76.8352 115.344 76.1437 118.951C75.4522 122.557 75.5054 121.672 76.0639 122.787L75.532 122.951V115.246Z" fill="#E90F89"/>
<path d="M106.649 128.525C106.543 128.688 104.096 127.213 103.803 126.951C103.511 126.688 103.325 126.984 103.458 126.229C105.638 125.18 106.862 125.082 106.649 128.525Z" fill="#E90F89"/>
<path d="M63.2979 97.3771C61.8085 98.623 60.4255 98.1967 58.7766 98.6885C59.6277 97.1148 62.1809 95.2459 63.2979 97.3771Z" fill="#E90F89"/>
<path d="M102.394 137.377C102.872 138 100.798 138.885 100.452 138.656C99.7872 138.393 99.6808 136.82 99.734 136.066L102.394 137.377Z" fill="#E90F89"/>
<path d="M56.383 109.836C55.9841 109.902 56.0107 109.246 55.9309 108.918C55.5586 107.344 55.6915 105.836 55.9575 104.262C56.2234 102.688 56.2766 102.459 56.6224 102.295L56.3564 109.836H56.383Z" fill="#E90F89"/>
<path d="M65.0797 98.7541C65.7446 98.623 66.3031 98.9181 66.7287 99.5082L65.3457 100.623L64.0957 99.5082C64.3351 99.1476 64.7074 98.8197 65.0797 98.7541Z" fill="#E90F89"/>
<path d="M70.4788 101.639C70.6117 102.393 70.3724 102.164 70.1596 102.393C69.016 103.443 68.5373 102.787 67.5798 101.803C68.4575 101.016 69.5479 101.279 70.5054 101.639H70.4788Z" fill="#E90F89"/>
<path d="M71.2767 104.59C70.798 103.803 75.8778 102.59 73.0054 105.475L71.2767 104.59Z" fill="#E90F89"/>
<path d="M88.7234 88.2295C90.2128 87.6066 91.0638 89.9345 89.8936 90.6558C88.4042 91.5738 87.7128 88.6558 88.7234 88.2295Z" fill="#E90F89"/>
<path d="M95.3989 60.3935C96.1967 60.2295 96.9148 60.7213 97.3137 61.541C97.234 63.4427 95.3191 63.9345 94.4414 62.3935L94.5212 60.9836C94.6542 60.7213 95.1329 60.4263 95.3989 60.3935Z" fill="#E90F89"/>
<path d="M67.5532 115.082C65.4255 114.328 65.3989 112.656 66.3564 110.492L67.7925 111.672L67.5532 115.049V115.082Z" fill="#E90F89"/>
<path d="M64.0957 112.787C62.4999 112.262 63.1382 110.459 63.0318 108.852L64.4946 109.475L64.0957 112.787Z" fill="#E90F89"/>
</g>
<defs>
<clipPath id="clip0_44_373">
<rect width="200" height="200" fill="white"/>
</clipPath>
</defs>
</svg>
