<svg width="580" height="568" viewBox="0 0 580 568" fill="none" xmlns="http://www.w3.org/2000/svg">
<path d="M137.014 97.3308C141.406 94.3837 144.039 88.4751 140.619 83.7111C161.593 67.3731 185.899 56.2427 208.646 42.6945C212.752 40.3483 216.944 37.8733 221.622 36.9148C242.209 33.5241 262.925 30.6342 283.183 25.5697C293.999 22.9517 304.757 19.418 315.973 19.2463C340.251 18.6741 364.572 19.8758 388.836 18.7885C394.086 17.5725 399.38 18.6025 404.659 18.8028C426.061 17.9015 447.492 19.0174 468.895 18.1304C481.413 17.6011 493.573 13.8099 506.12 13.7669C513.23 13.6811 519.611 17.1719 526.178 19.3751C538.181 23.7815 550.756 26.3423 563.26 28.8173C567.309 29.504 571.329 30.4339 575.406 30.8631C574.39 38.3311 574.777 45.6131 575.764 53.1239C575.435 56.8722 575.091 60.6205 574.691 64.3688C572.688 82.8384 572.874 102.081 570.356 120.693C540.613 113.182 510.154 108.318 479.51 106.902C486.191 100.049 489.882 90.8357 491.07 81.4364C491.213 78.103 485.862 76.3719 484.431 79.691C478.451 87.9744 473.287 96.8158 468.666 105.929C467.593 108.475 464.717 109.262 462.543 110.564C453.301 114.899 446.062 122.61 436.462 126.273C421.326 132.196 405.417 135.786 389.995 140.837C388.807 129.678 383.113 118.891 373.671 112.596C366.89 108.118 358.149 104.999 350.108 107.803C352.698 103.583 356.103 99.6341 356.904 94.5983C358.392 87.4021 353.985 80.3062 348.163 76.4005C339.894 70.7495 329.808 68.9468 320.251 66.6149C308.319 63.5104 295.615 67.2301 283.841 63.2386C280.579 60.9782 282.639 54.2828 277.317 54.0825C273.612 54.2112 273.555 58.1026 273.497 60.8637C258.619 63.4389 243.64 65.9139 228.532 66.5863C227.216 62.2085 226.601 57.3586 223.668 53.6962C222.109 51.6074 218.318 51.9794 217.302 54.4258C215.399 58.8465 218.26 63.353 219.319 67.6307C203.982 78.3891 184.855 82.0658 169.046 92.0517C162.437 96.8587 155.927 101.837 148.917 106.086C146.785 104.284 143.767 102.195 141.006 104.126C139.646 106.043 140.491 108.39 140.863 110.478C133.552 113.769 124.124 113.797 118.587 107.231C125.927 106.93 131.578 101.651 137.028 97.3308H137.014Z" fill="#E90F89"/>
<path d="M219.705 5.29749C199.204 5.555 178.717 6.51351 158.259 7.87262C157.902 10.9771 155.956 13.538 152.937 14.5108C146.571 17.1861 139.546 17.7154 132.708 17.5295C140.605 27.4867 154.554 25.4695 165.77 25.5268C181.836 24.5968 197.945 26.1563 213.711 29.2322C214.669 26.6999 214.469 21.1061 218.618 22.2506C222.266 22.6369 221.823 27.2721 222.538 29.9188C240.95 26.6284 259.248 22.7513 277.375 18.116C262.067 14.4679 246.93 9.97567 231.465 7.07147C229.348 9.78969 226.658 12.6796 222.81 12.1074C219.605 11.435 219.691 7.87264 219.705 5.29749Z" fill="#E90F89"/>
<path d="M149.361 8.21606C144.253 9.46072 138.488 8.24466 133.767 10.7483C139.06 11.2347 144.325 10.3906 149.475 9.28905C149.446 9.01722 149.389 8.48789 149.361 8.21606Z" fill="#E90F89"/>
<path d="M283.841 74.5549C284.986 70.0484 279.792 68.7894 277.16 66.4575C263.082 69.8052 248.59 71.3217 234.212 72.8238C228.304 78.9756 221.766 84.9843 218.733 93.1819C209.863 116.23 203.224 140.05 197.402 164.027C202.366 168.877 200.435 176.188 199.605 182.282C199.161 186.202 197.116 189.564 194.698 192.569C197.631 193.041 200.592 192.883 203.468 192.283C203.067 189.536 201.937 186.474 203.654 183.942C205.8 181.982 208.017 184.142 210.049 185.058C217.087 175.158 219.362 162.911 220.507 151.08C216.3 149.249 211.508 148.076 208.36 144.499C207.202 142.253 208.833 139.191 211.336 139.034C215.499 138.619 219.062 141.294 222.695 142.839C230.149 132.424 234.956 120.45 240.221 108.833C237.603 105.571 234.541 102.567 232.681 98.7757C231.623 95.7999 235.013 92.5524 237.946 93.8113C241.508 95.056 243.139 98.976 245.614 101.565C259.835 94.7842 270.565 82.7954 283.841 74.5549Z" fill="#E90F89"/>
<path d="M341.596 94.4411C337.218 82.5095 325.673 74.0401 313.198 72.4664C323.856 77.9458 335.402 83.6254 341.596 94.4411Z" fill="#E90F89"/>
<path d="M349.264 97.7743C354.157 89.2191 346.031 80.8356 338.348 78.0458C343.399 83.7684 346.846 90.5782 349.264 97.7743Z" fill="#E90F89"/>
<path d="M135.727 88.7617C129.332 91.6229 123.58 95.9721 118.287 100.522C122.693 100.808 126.084 97.7461 129.446 95.4141C131.792 93.4828 134.968 91.9663 135.727 88.7617Z" fill="#E90F89"/>
<path d="M367.462 120.135C361.225 116.015 353.657 114.828 346.289 115.157C342.126 119.52 337.834 123.869 332.64 127.031C323.127 133.154 311.624 134.499 301.238 138.519C291.152 142.182 282.453 148.777 274.599 155.959C280.164 153.312 287.218 148.019 292.969 153.198C299.135 159.235 303.87 169.593 298.791 177.69C304.142 174.929 309.965 173.227 315.358 170.566C312.583 165.244 310.294 159.306 310.637 153.198C310.637 150.365 314.9 148.648 316.775 150.894C321.21 154.914 322.111 161.223 323.069 166.817C333.227 162.196 342.397 155.601 352.827 151.567C362.326 147.79 372.441 146.016 382.255 143.34C379.794 134.442 375.76 125.042 367.462 120.135Z" fill="#E90F89"/>
<path d="M295.157 170.437C293.684 165.415 291.781 160.222 287.718 156.703C281.881 159.478 275.2 162.01 271.395 167.49C270.436 172.454 272.425 178.162 275.758 181.939C283.069 180.823 291.853 177.747 295.157 170.437Z" fill="#E90F89"/>
<path d="M193.768 175.473C193.067 178.42 192.595 181.453 192.695 184.514C193.51 181.567 193.768 178.506 193.768 175.473Z" fill="#E90F89"/>
<path d="M256.859 255.074C249.005 248.75 238.375 248.121 228.718 248.521C218.103 249.523 207.001 252.098 198.689 259.151C190.248 266.419 186.672 278.05 187.502 288.937C188.618 292.285 191.364 294.889 194.226 296.806C196.486 297.263 198.518 295.833 200.578 295.261C212.552 290.725 225.185 288.322 237.588 285.318C247.317 283.186 258.733 281.398 267.36 287.65C271.795 290.597 273.569 295.847 277.103 299.624C275.973 283.243 271.137 264.902 256.859 255.074Z" fill="#E90F89"/>
<path d="M269.12 308.236C266.888 300.811 260.35 292.642 251.752 294.102C241.48 296.391 231.923 301.226 221.565 303.244C213.382 305.204 204.912 304.66 196.6 304.059C192.609 311.384 194.383 319.982 195.857 327.736C197.702 335.805 199.104 343.96 200.249 352.172C202.666 362.272 206.701 372.201 212.938 380.57C219.291 388.91 229.334 395.062 240.078 394.547C251.709 394.418 262.195 386.764 267.832 376.907C273.169 367.694 275.844 356.835 275.5 346.22C272.825 333.659 272.453 320.654 269.12 308.236Z" fill="#E90F89"/>
<path d="M288.233 317.721C287.976 313.243 288.047 307.306 283.841 304.574C283.77 316.391 283.512 328.208 283.412 340.025C287.632 333.473 287.861 325.275 288.233 317.721Z" fill="#E90F89"/>
<path d="M192.623 352.844C188.603 341.67 186.472 329.939 183.124 318.608C180.663 325.933 182.995 333.644 185.255 340.697C186.929 345.118 188.474 350.097 192.623 352.844Z" fill="#E90F89"/>
<path d="M412.37 442.159C409.237 432.903 400.267 424.019 389.78 425.85C389.365 433.418 389.494 441.015 389.751 448.597C391.998 452.832 396.619 455.278 400.71 457.496C404.187 459.441 409.151 459.942 411.869 456.494C414.788 452.331 413.672 446.708 412.37 442.159Z" fill="#E90F89"/>
<path d="M402.928 469.484C390.467 471.673 375.917 463.619 374.673 450.242C367.634 455.879 361.611 464.148 361.854 473.533C361.697 479.556 363.242 486.294 368.163 490.229C373.127 494.091 380.338 493.619 385.445 490.271C393.199 485.379 399.58 478.054 402.928 469.484Z" fill="#E90F89"/>
<path d="M352.24 473.304C344.558 480.357 337.376 488.769 335.044 499.227C333.556 505.823 332.268 513.047 334.558 519.6C337.161 526.066 345.373 528.298 351.625 526.395C366.203 522.533 377.863 511.617 386.175 499.428C378.049 503.062 367.562 505.651 359.88 499.657C351.925 493.476 350.938 482.589 352.24 473.304Z" fill="#E90F89"/>
<path d="M123.681 474.577C117.329 471.316 109.088 473.19 103.423 477.195C96.6271 481.931 95.1107 492.303 99.9177 498.956C106.284 507.454 119.031 510.243 128.244 504.793C132.822 502.504 135.355 497.11 134.382 492.103C133.266 485.093 128.216 479.685 123.681 474.577Z" fill="#E90F89"/>
<path d="M147.544 497.868C148.302 491.802 144.239 486.38 140.047 482.432C141.993 487.31 144.239 492.603 142.908 497.954C140.047 508.469 129.546 516.381 118.573 515.866C113.909 516.109 109.646 514.063 105.383 512.475C119.618 523.305 142.307 514.321 147.544 497.868Z" fill="#E90F89"/>
<path d="M182.037 509.242C183.052 498.526 182.223 487.668 183.696 477.01C189.147 463.69 194.626 449.584 192.938 434.877C192.638 429.698 190.578 424.848 187.845 420.513C188.918 415.435 190.506 410.027 194.726 406.651C201.222 401.3 209.762 399.698 217.731 397.881C219.491 402.559 221.422 407.695 225.914 410.442C235.414 416.379 248.204 416.665 258.061 411.415C263.526 408.553 267.074 403.303 269.635 397.866C277.689 399.712 285.215 405.42 287.661 413.503C283.655 436.208 288.877 459.284 296.016 480.815C297.776 486.48 301.109 491.745 301.352 497.797C302.511 519.543 303.584 541.303 304.128 563.077C297.075 563.792 289.993 563.177 282.926 563.306C246.244 563.163 209.562 563.606 172.881 563.091C175.885 557.469 176.643 551.045 177.716 544.865C179.404 533.019 180.906 521.145 182.037 509.242Z" fill="#E90F89"/>
<path d="M232.695 407.08C237.474 407.166 242.309 407.723 247.03 406.794C251.723 406.078 255.815 403.546 260.235 402.044C253.082 409.269 241.98 410.055 232.695 407.08Z" fill="#E90F89"/>
<path d="M316.86 428.339C324.013 435.192 330.094 443.017 336.589 450.456C336.875 454.82 336.689 459.212 337.204 463.561C337.419 467.181 341.31 465.764 343.155 464.534C343.184 465.879 345.101 468.068 343.127 468.926C333.484 474.591 327.905 485.107 325.43 495.708C324.829 499.213 324.013 503.19 326.26 506.309C326.975 511.044 326.474 515.908 327.833 520.572C323.155 517.74 319.664 513.419 316.746 508.884H316.302C313.398 503.319 308.749 498.555 307.246 492.331C305.902 466.036 302.826 439.641 295.472 414.276C303.913 416.55 310.78 422.287 316.86 428.339Z" fill="#E90F89"/>
<path d="M292.697 426.307C295.715 441.057 298.577 455.965 299.507 471.001C295.916 456.394 292.296 441.458 292.697 426.307Z" fill="#E90F89"/>
<path d="M139.647 468.425C139.961 464.834 140.147 461.258 140.205 457.667C152.923 445.735 165.842 433.804 180.72 424.59C179.562 439.483 178.446 454.391 178.203 469.341C177.988 473.175 178.203 477.424 175.656 480.614C171.722 485.707 166.672 489.77 161.75 493.891C159.447 495.708 157.072 497.439 154.597 499.07C155.269 494.105 155.484 489.069 154.668 484.105C152.007 477.038 146.728 471.244 139.647 468.425Z" fill="#E90F89"/>
<path d="M186.4 433.132C187.072 440.156 187.044 447.338 185.284 454.219C185.17 447.18 185.399 440.099 186.4 433.132Z" fill="#E90F89"/>
<path d="M4.02161 560.214C57.2987 560.243 110.576 560.214 163.839 560.758C162.022 538.568 166.314 516.508 171.407 495.02C165.083 500.914 158.088 506.579 149.561 508.825C142.894 518.454 131.749 524.977 119.846 524.477C109.188 525.163 98.4298 518.582 94.8246 508.425C94.238 505.664 94.2808 502.702 92.793 500.213C87.3136 490.041 92.1635 476.45 102.178 471.156C108.902 467.008 117.2 467.022 124.725 468.41C126.971 463.746 131.778 460.598 133.666 455.92C136.814 343.214 139.189 230.494 142.05 117.788C136.127 120.005 129.46 121.407 123.309 119.132C117.1 117.273 112.336 111.836 111.234 105.456C109.56 100.663 113.151 96.2851 116.799 93.6957C131.521 83.1518 145.641 71.6781 161.407 62.6793C177.501 54.0096 193.095 44.3814 209.376 36.098C203.997 34.8104 198.46 34.5672 192.981 33.8232C177.201 31.806 161.249 34.6387 145.469 32.6931C136.213 31.5486 126.227 25.4254 125.312 15.3394C124.138 10.6755 126.928 5.36778 131.95 4.82414C149.275 1.96285 166.915 2.10591 184.397 0.746796C199.362 0.517893 214.398 -0.812605 229.319 0.746796C247.846 4.36632 265.886 10.0889 284.356 13.9087C290.923 15.4681 296.889 11.262 303.241 10.4036C320.222 6.15463 337.49 10.8471 354.543 11.9344C367.82 13.3365 381.182 12.6355 394.487 13.3222C419.38 12.5782 444.302 13.5654 469.181 12.5639C486.148 11.6197 503.745 4.52369 520.355 11.2048C535.992 17.7857 552.687 21.1478 569.297 24.2522C571.829 24.7959 574.633 24.8675 577.137 25.6257C576.593 26.4125 576.179 27.371 575.95 28.5442C575.735 29.6601 575.549 30.7617 575.406 31.8633C571.329 31.4484 567.309 30.5185 563.26 29.8175C550.756 27.3425 538.181 24.7816 526.178 20.3752C519.611 18.172 513.23 14.6812 506.12 14.7671C493.573 14.81 481.413 18.6012 468.895 19.1306C447.492 20.0176 426.061 18.9017 404.659 19.803C399.38 19.6027 394.086 18.5726 388.836 19.7886C364.572 20.8759 340.251 19.6742 315.973 20.2465C304.757 20.4181 293.999 23.9518 283.183 26.5699C262.925 31.6344 242.209 34.5243 221.622 37.9149C216.944 38.8734 212.752 41.3484 208.646 43.6947C185.899 57.2429 161.593 68.3733 140.619 84.7112C144.039 89.4753 141.406 95.3838 137.014 98.3309C131.563 102.651 125.912 107.931 118.573 108.231C124.11 114.798 133.538 114.769 140.848 111.479C140.476 109.39 139.632 107.044 140.991 105.126C143.752 103.195 146.771 105.284 148.903 107.087C155.913 102.838 162.422 97.8588 169.032 93.0519C184.841 83.066 203.968 79.3892 219.305 68.6308C218.246 64.3532 215.385 59.8467 217.288 55.426C218.303 52.9796 222.094 52.6076 223.654 54.6963C226.587 58.3588 227.202 63.2087 228.518 67.5864C243.626 66.914 258.605 64.439 273.483 61.8639C273.54 59.1027 273.598 55.2114 277.303 55.0826C282.625 55.2829 280.565 61.9783 283.827 64.2387C295.601 68.2302 308.305 64.5105 320.237 67.615C329.793 69.947 339.879 71.7496 348.148 77.4007C353.971 81.3063 358.378 88.4023 356.89 95.5984C356.089 100.634 352.684 104.583 350.094 108.803C358.134 105.999 366.876 109.118 373.657 113.596C383.099 119.891 388.793 130.678 389.98 141.837C405.403 136.787 421.312 133.196 436.448 127.273C446.047 123.61 453.286 115.899 462.528 111.564C464.703 110.262 467.579 109.476 468.651 106.929C473.272 97.8159 478.437 88.9745 484.417 80.6911C485.848 77.372 491.198 79.1031 491.055 82.4365C489.868 91.8358 486.177 101.049 479.496 107.902C510.154 109.318 540.613 114.182 570.342 121.693C570.041 123.911 569.712 126.128 569.326 128.332C567.752 127.902 566.178 127.473 564.605 127.101C534.175 119.605 502.958 114.984 471.613 114.268C464.317 122.781 455.776 130.463 445.289 134.784C427.678 142.338 408.693 145.928 389.995 149.691C389.952 239.965 389.909 330.238 389.809 420.512C409.866 417.793 425.761 441.828 418.465 459.797C416.934 463.531 412.957 465.062 409.766 467.051C409.265 477.294 401.955 485.406 395.145 492.387C394.73 499.054 391.096 504.92 387.234 510.156C378.406 521.043 366.876 530.643 352.927 533.776C345.917 535.392 338.005 534.377 332.697 529.155C321.338 529.713 314.686 518.411 308.52 510.556C309.75 526.322 309.922 542.159 310.465 557.954C400.081 558.426 489.696 557.811 579.297 558.612C580.399 560.915 580.299 563.404 578.325 565.221C513.702 564.649 449.066 565.093 384.444 564.806C357.677 564.02 330.866 565.178 304.128 564.077C303.584 542.302 302.511 520.542 301.352 498.797C301.109 492.745 297.776 487.48 296.016 481.815C288.877 460.284 283.655 437.207 287.661 414.503C285.214 406.42 277.689 400.712 269.635 398.866C267.074 404.303 263.526 409.553 258.061 412.414C248.204 417.665 235.414 417.379 225.914 411.441C221.422 408.695 219.491 403.559 217.731 398.88C209.762 400.697 201.221 402.3 194.726 407.65C190.506 411.027 188.918 416.434 187.845 421.513C190.577 425.848 192.638 430.698 192.938 435.877C194.626 450.584 189.147 464.69 183.696 478.009C182.223 488.668 183.052 499.526 182.036 510.242C180.906 522.145 179.404 534.019 177.716 545.865C176.643 552.045 175.885 558.469 172.88 564.091C171.822 565.493 170.634 567.439 168.546 567.167C113.223 566.523 57.8711 566.924 2.5481 566.623C-1.80106 566.609 -0.0986452 559.069 4.02161 560.214ZM149.361 9.21622C144.253 10.4609 138.488 9.24482 133.767 11.7484C139.06 12.2349 144.325 11.3908 149.475 10.2892C149.446 10.0174 149.389 9.48804 149.361 9.21622ZM218.618 23.2508C222.266 23.6371 221.823 28.2724 222.538 30.919C240.95 27.6286 259.248 23.7515 277.375 19.1162C262.067 15.4681 246.93 10.9759 231.465 8.07168C229.348 10.7899 226.658 13.6798 222.81 13.1076C219.605 12.4352 219.691 8.87285 219.705 6.2977C199.204 6.55521 178.717 7.51373 158.259 8.87284C157.902 11.9773 155.956 14.5382 152.937 15.511C146.571 18.1863 139.546 18.7157 132.708 18.5297C140.605 28.487 154.554 26.4697 165.77 26.527C181.836 25.597 197.945 27.1565 213.711 30.2324C214.669 27.7001 214.469 22.1063 218.618 23.2508ZM129.446 96.4139C131.792 94.4825 134.968 92.966 135.727 89.7614C129.332 92.6227 123.58 96.9718 118.287 101.521C122.693 101.807 126.084 98.7458 129.446 96.4139ZM134.382 493.103C133.266 486.092 128.216 480.685 123.681 475.577C117.329 472.315 109.088 474.189 103.423 478.195C96.6271 482.931 95.1107 493.303 99.9176 499.955C106.284 508.453 119.031 511.243 128.244 505.792C132.822 503.503 135.355 498.11 134.382 493.103ZM118.573 516.866C113.909 517.109 109.646 515.063 105.383 513.475C119.618 524.305 142.308 515.32 147.544 498.868C148.302 492.802 144.239 487.38 140.047 483.431C141.993 488.31 144.239 493.603 142.908 498.954C140.047 509.469 129.546 517.381 118.573 516.866ZM277.16 67.4577C263.082 70.8054 248.59 72.3219 234.212 73.8241C228.304 79.9758 221.765 85.9845 218.732 94.1821C209.862 117.23 203.224 141.05 197.402 165.028C202.366 169.877 200.435 177.188 199.605 183.283C199.161 187.202 197.116 190.564 194.698 193.569C197.631 194.041 200.592 193.884 203.468 193.283C203.067 190.536 201.937 187.474 203.654 184.942C205.8 182.982 208.017 185.142 210.048 186.058C217.087 176.158 219.362 163.912 220.506 152.08C216.3 150.249 211.508 149.076 208.36 145.499C207.202 143.253 208.832 140.192 211.336 140.034C215.499 139.619 219.062 142.295 222.695 143.84C230.149 133.425 234.956 121.45 240.221 109.833C237.603 106.571 234.541 103.567 232.681 99.7759C231.623 96.8002 235.013 93.5526 237.946 94.8116C241.508 96.0562 243.139 99.9762 245.614 102.566C259.835 95.7844 270.565 83.7956 283.841 75.5551C284.986 71.0486 279.792 69.7896 277.16 67.4577ZM187.502 289.937C188.617 293.285 191.364 295.888 194.226 297.806C196.486 298.263 198.518 296.833 200.578 296.26C212.552 291.725 225.185 289.322 237.588 286.317C247.317 284.186 258.733 282.397 267.36 288.649C271.795 291.596 273.569 296.847 277.103 300.624C275.972 284.243 271.137 265.902 256.859 256.074C249.005 249.75 238.375 249.121 228.718 249.521C218.103 250.523 207.001 253.098 198.689 260.151C190.248 267.419 186.672 279.05 187.502 289.937ZM183.124 319.608C180.663 326.933 182.995 334.645 185.255 341.698C186.929 346.118 188.474 351.097 192.623 353.844C188.603 342.67 186.471 330.939 183.124 319.608ZM295.157 171.437C293.684 166.415 291.781 161.222 287.718 157.703C281.881 160.478 275.2 163.01 271.394 168.49C270.436 173.454 272.425 179.162 275.758 182.939C283.068 181.823 291.853 178.747 295.157 171.437ZM283.412 341.025C287.632 334.473 287.861 326.275 288.233 318.721C287.976 314.244 288.047 308.306 283.841 305.574C283.77 317.391 283.512 329.208 283.412 341.025ZM268.991 188.247C262.296 184.384 259.635 175.672 261.423 168.404C263.798 157.989 271.609 149.906 279.964 143.782C281.18 142.752 283.111 141.837 282.682 139.891C282.84 121.107 283.669 102.308 283.569 83.5095C271.352 92.0647 260.908 103.481 246.873 109.161C246.744 153.983 246.158 198.805 245.357 243.627C263.168 247.418 275.944 262.955 280.336 280.037C280.379 249.85 281.008 219.664 281.409 189.477C277.274 190.235 272.754 190.536 268.991 188.247ZM240.335 125.914C236.201 133.968 232.467 142.323 226.801 149.462C226.301 165.671 222.738 183.082 211.121 195.171C210.807 212.21 210.893 229.278 210.864 246.331C219.949 243.699 229.548 241.767 239.019 243.126C239.348 204.055 239.935 164.97 240.335 125.914ZM292.754 80.5337C291.638 80.734 289.721 81.106 290.021 82.7226C289.936 101.106 289.664 119.476 289.277 137.845C302.411 129.762 318.92 129.848 331.553 120.835C335.144 118.374 338.205 115.227 341.038 111.951C337.032 105.885 337.004 97.773 331.539 92.5654C325.415 86.9287 317.905 82.9229 310.308 79.6467C304.643 76.9428 298.491 79.4321 292.754 80.5337ZM313.198 73.4664C323.856 78.9458 335.401 84.6254 341.596 95.4411C337.218 83.5095 325.673 75.0401 313.198 73.4664ZM338.349 79.0459C343.399 84.7685 346.847 91.5783 349.264 98.7744C354.157 90.2192 346.031 81.8356 338.349 79.0459ZM367.462 121.135C361.225 117.015 353.656 115.828 346.289 116.157C342.125 120.52 337.834 124.869 332.64 128.031C323.126 134.154 311.624 135.499 301.238 139.519C291.152 143.182 282.453 149.777 274.599 156.959C280.164 154.312 287.217 149.019 292.969 154.198C299.135 160.235 303.87 170.593 298.791 178.69C304.142 175.929 309.965 174.227 315.358 171.566C312.583 166.244 310.294 160.306 310.637 154.198C310.637 151.365 314.9 149.648 316.774 151.894C321.209 155.914 322.111 162.223 323.069 167.817C333.227 163.196 342.397 156.601 352.827 152.567C362.326 148.79 372.441 147.016 382.255 144.34C379.794 135.442 375.76 126.042 367.462 121.135ZM346.99 162.409C335.63 168.49 324.443 174.942 312.64 180.164C320.237 245.845 326.789 311.64 334.786 377.278C337.59 401.642 340.695 425.991 342.898 450.412C345.402 456.235 350.137 460.985 351.339 467.394C352.927 466.965 354.515 466.535 356.06 466.121C359.336 456.592 365.989 448.338 374.959 443.645C374.315 435.891 377.748 428.495 383.414 423.33C383.399 332.484 383.414 241.624 383.485 150.764C371.153 154.055 358.363 156.301 346.99 162.409ZM411.869 457.494C414.788 453.331 413.672 447.708 412.37 443.159C409.237 433.903 400.267 425.018 389.78 426.85C389.365 434.418 389.494 442.014 389.752 449.597C391.998 453.831 396.619 456.278 400.71 458.495C404.187 460.441 409.151 460.942 411.869 457.494ZM402.928 470.484C390.467 472.673 375.917 464.618 374.673 451.242C367.634 456.879 361.611 465.148 361.854 474.533C361.697 480.556 363.242 487.294 368.163 491.228C373.127 495.091 380.338 494.619 385.445 491.271C393.199 486.379 399.58 479.054 402.928 470.484ZM334.557 520.599C337.161 527.066 345.373 529.298 351.625 527.395C366.203 523.532 377.863 512.617 386.175 500.427C378.049 504.061 367.562 506.651 359.88 500.656C351.925 494.476 350.938 483.589 352.24 474.304C344.558 481.357 337.376 489.769 335.044 500.227C333.556 506.822 332.268 514.047 334.557 520.599ZM307.246 493.331C308.749 499.555 313.398 504.319 316.302 509.898H316.746C319.664 514.419 323.155 518.74 327.833 521.572C326.474 516.908 326.975 512.044 326.26 507.309C324.013 504.19 324.829 500.213 325.43 496.708C327.905 486.107 333.484 475.591 343.127 469.926C345.101 469.068 343.184 466.879 343.155 465.534C341.31 466.764 337.419 468.181 337.204 464.561C336.689 460.212 336.875 455.82 336.589 451.456C330.094 444.017 324.013 436.192 316.86 429.339C310.78 423.287 303.913 417.55 295.472 415.276C302.826 440.641 305.902 467.036 307.246 493.331ZM299.507 472.001C298.577 456.965 295.715 442.057 292.697 427.307C292.296 442.458 295.916 457.394 299.507 472.001ZM292.854 408.995C297.575 409.109 302.282 410.168 306.316 412.672C318.062 419.51 326.903 430.054 335.702 440.169C324.901 354.287 316.031 268.163 306.302 182.152C300.465 184.785 294.256 186.387 288.061 187.961C287.775 224.914 286.931 261.853 286.402 298.807C295.444 304.501 295.157 316.461 294.514 325.846C293.856 334.315 291.967 345.231 282.482 347.978C281.838 358.994 279.907 370.225 274.055 379.796C271.48 383.501 270.822 387.95 270.379 392.357C280.15 393.859 287.99 400.654 292.854 408.995ZM260.235 403.044C255.815 404.546 251.723 407.078 247.031 407.793C242.309 408.723 237.474 408.165 232.696 408.079C241.98 411.055 253.082 410.268 260.235 403.044ZM240.078 395.547C251.709 395.418 262.195 387.764 267.832 377.907C273.168 368.694 275.844 357.835 275.5 347.22C272.825 334.659 272.453 321.654 269.12 309.236C266.888 301.811 260.35 293.642 251.752 295.102C241.48 297.391 231.923 302.226 221.565 304.243C213.382 306.203 204.912 305.66 196.6 305.059C192.609 312.384 194.383 320.982 195.857 328.736C197.702 336.805 199.104 344.959 200.249 353.171C202.666 363.272 206.701 373.2 212.938 381.57C219.29 389.91 229.334 396.062 240.078 395.547ZM185.284 455.219C187.044 448.338 187.072 441.156 186.4 434.131C185.398 441.099 185.17 448.18 185.284 455.219ZM193.238 400.497C199.576 396.348 207.044 394.474 214.383 393.043C204.512 384.374 199.29 372.042 195.041 359.924C188.689 360.367 183.71 355.346 181.364 349.909C178.217 342.713 176.099 335.002 175.227 327.191C174.554 321.54 177.301 316.118 181.836 312.856C180.477 298.936 178.589 284.243 183.467 270.781C186.257 262.869 191.779 255.788 199.219 251.753C200.835 250.723 202.738 250.079 204.068 248.692C204.283 232.325 204.555 215.958 204.684 199.592C197.602 202.897 187.029 199.821 185.713 191.323C185.427 182.467 188.274 173.869 190.492 165.385C196.944 139.891 203.639 114.34 213.482 89.9045C215.914 83.3092 221.308 78.6453 225.471 73.2088C210.664 82.4365 193.982 87.8873 178.231 95.2121C167.73 100.577 159.418 109.318 148.931 114.726C146.7 184.556 145.527 254.428 143.638 324.272C142.608 366.047 141.32 407.808 140.448 449.582C149.461 440.727 159.246 432.701 169.332 425.104C173.195 422.271 177.458 420.068 181.779 418.037C183.195 410.998 187.015 404.303 193.238 400.497ZM193.768 176.473C193.067 179.42 192.595 182.453 192.695 185.514C193.51 182.567 193.768 179.506 193.768 176.473ZM178.202 470.341C178.446 455.391 179.562 440.484 180.72 425.591C165.842 434.804 152.923 446.735 140.204 458.667C140.147 462.258 139.961 465.834 139.647 469.425C146.728 472.244 152.007 478.038 154.668 485.105C155.484 490.07 155.269 495.105 154.597 500.07C157.072 498.439 159.447 496.708 161.75 494.891C166.671 490.771 171.722 486.708 175.656 481.614C178.202 478.424 177.988 474.175 178.202 470.341ZM169.948 553.404C173.138 535.779 175.041 517.953 176.443 500.098C172.58 517.581 168.989 535.435 169.948 553.404Z" fill="#E90F89"/>
<path d="M169.948 552.404C168.989 534.435 172.58 516.581 176.443 499.098C175.041 516.953 173.138 534.779 169.948 552.404Z" fill="#E90F89"/>
</svg>
