<svg width="218" height="200" viewBox="0 0 218 200" fill="none" xmlns="http://www.w3.org/2000/svg">
<path d="M26.9012 96.7225C15.5803 103.675 9.69879 113.154 10.1932 123.631C10.3662 127.206 11.2937 130.952 13.0841 135.195L13.3255 135.768L13.7546 135.618C14.1731 135.474 32.0861 128.189 32.8776 127.842L33.2574 127.678L32.7949 126.494C31.7093 123.703 31.1685 121.307 31.2023 119.385C31.2191 118.093 31.8499 115.847 32.4612 114.812C33.7216 112.736 35.9114 110.872 38.6777 109.538C43.7937 107.068 47.9277 107.543 51.075 110.982C52.179 112.204 53.3137 114.348 53.7151 115.978C54.3234 118.449 54.1295 120.94 53.1099 124.224C52.791 125.238 51.8729 127.819 51.0594 129.957C48.3316 137.188 47.505 140.726 47.5974 144.814C47.6671 147.893 48.3258 150.736 49.7795 154.155C50.3568 155.525 52.5087 159.545 53.6904 161.47L54.4595 162.736L62.902 158.158L71.3553 153.574L70.0329 151.008C68.6115 148.234 68.2125 147.168 67.975 145.407C67.5351 142.128 68.1166 139.868 71.3906 132.092C74.2168 125.373 75.0426 122.953 75.6382 119.651C76.8061 113.155 75.7485 107.287 72.3555 101.512C69.7449 97.0793 66.5822 93.994 62.323 91.71C57.887 89.3289 52.8065 88.4559 47.126 89.122C40.7534 89.8599 33.84 92.4498 26.9012 96.7225Z" fill="#E90F89"/>
<path d="M65.4311 166.511C62.445 169.068 61.0916 172.754 61.7578 176.476C62.8831 182.749 68.9826 186.697 75.0719 185.106C76.4867 184.739 78.3628 183.721 79.4047 182.743C80.947 181.313 82.2583 178.975 82.6329 177.02C83.176 174.256 82.7177 171.732 81.2249 169.259C80.0192 167.264 78.4984 165.909 76.4162 164.969C74.4886 164.111 71.7612 163.838 69.6996 164.335C68.6712 164.575 66.2167 165.823 65.4311 166.511Z" fill="#E90F89"/>
<path d="M184.452 93.3164C172.45 87.6216 161.297 87.8638 152.786 93.9941C149.884 96.0896 147.251 98.9103 144.671 102.726L144.323 103.24L144.683 103.518C145.032 103.79 160.91 114.828 161.632 115.303L161.977 115.531L162.717 114.498C164.464 112.065 166.177 110.305 167.806 109.285C168.898 108.594 171.124 107.897 172.325 107.845C174.753 107.768 177.509 108.587 180.137 110.178C184.998 113.117 186.855 116.841 185.69 121.355C185.268 122.947 184.091 125.067 182.943 126.293C181.205 128.151 179.011 129.348 175.702 130.285C174.678 130.571 172.015 131.209 169.779 131.694C162.231 133.353 158.815 134.59 155.439 136.898C152.896 138.636 150.873 140.739 148.801 143.823C147.968 145.054 145.773 149.05 144.805 151.091L144.163 152.426L152.606 157.004L161.059 161.588L162.488 159.08C164.037 156.375 164.713 155.459 166.059 154.299C168.567 152.142 170.779 151.396 179.081 149.898C186.254 148.601 188.733 147.972 191.826 146.67C197.906 144.105 202.247 140.017 205.236 134.023C207.527 129.417 208.387 125.083 207.978 120.268C207.553 115.251 205.513 110.517 201.856 106.12C197.761 101.182 191.819 96.8007 184.452 93.3164Z" fill="#E90F89"/>
<path d="M146.985 163.681C143.213 162.573 139.386 163.45 136.63 166.038C131.987 170.404 132.005 177.67 136.661 181.905C137.741 182.89 139.617 183.908 141.005 184.247C143.045 184.759 145.72 184.583 147.563 183.83C150.175 182.777 152.04 181.016 153.299 178.416C154.313 176.317 154.618 174.304 154.27 172.046C153.938 169.962 152.679 167.527 151.138 166.071C150.375 165.34 147.99 163.964 146.985 163.681Z" fill="#E90F89"/>
<path d="M107.448 0.151192C88.0222 1.19882 73.8348 9.29576 67.1584 23.128C64.8855 27.8512 63.465 33.3202 62.808 40.0322L62.7192 40.9377L63.3762 41.0443C64.0155 41.1508 92.1594 44.276 93.4201 44.3825L94.0239 44.4358L94.2547 42.5891C94.8051 38.2388 95.7817 34.7763 97.1667 32.3259C98.0901 30.6745 100.469 28.2241 101.979 27.3186C105.051 25.5252 109.17 24.6551 113.662 24.8682C121.973 25.2588 126.962 28.7568 128.613 35.38C129.182 37.7238 129.146 41.2751 128.525 43.6545C127.584 47.259 125.595 50.3309 121.99 53.8467C120.872 54.9298 117.889 57.611 115.349 59.7951C106.791 67.1995 103.257 71.177 100.523 76.5039C98.463 80.5169 97.3266 84.6364 96.8116 90.0521C96.5985 92.2184 96.563 98.8948 96.7406 102.197L96.8471 104.364H110.91H124.991L125.08 100.138C125.186 95.5743 125.417 93.923 126.341 91.4903C128.063 86.9625 130.389 84.4588 140.031 76.7347C148.359 70.0583 151.111 67.5191 154.183 63.6838C160.22 56.1373 162.954 47.845 162.617 38.0434C162.351 30.5147 160.433 24.3355 156.544 18.4226C152.496 12.2611 146.565 7.59114 138.788 4.48376C130.069 0.985745 119.362 -0.505797 107.448 0.151192Z" fill="#E90F89"/>
<path d="M108.336 116.882C102.707 118.089 98.3919 121.889 96.6518 127.145C93.722 136.006 98.8181 145.346 107.767 147.547C109.845 148.062 112.97 148.062 114.994 147.53C117.977 146.766 121.298 144.671 123.144 142.416C125.772 139.237 126.944 135.668 126.749 131.442C126.589 128.033 125.577 125.228 123.553 122.564C121.671 120.114 118.35 117.859 115.349 117.06C113.858 116.651 109.827 116.545 108.336 116.882Z" fill="#E90F89"/>
</svg>
