<svg width="132" height="200" viewBox="0 0 132 200" fill="none" xmlns="http://www.w3.org/2000/svg">
<path fill-rule="evenodd" clip-rule="evenodd" d="M25.4322 0.0691635C25.4322 0.114483 26.0857 0.575659 26.8844 1.09424C31.5727 4.1371 37.3533 9.82854 41.8688 15.8482C45.8185 21.1132 48.9449 26.3424 51.8037 32.4653C53.6015 36.3159 56.0358 42.4262 57.2325 46.0927C58.2016 49.062 60.2557 56.9523 60.1001 57.1079C60.0574 57.1506 59.3046 57.3837 58.4272 57.6258C57.5499 57.8679 55.9238 58.4953 54.8137 59.0199C48.6099 61.9525 45.5729 66.246 46.3144 71.036C46.4471 71.8932 46.5371 72.6122 46.5145 72.6338C46.4918 72.6554 44.2587 73.1215 41.552 73.6695C38.8452 74.2176 36.1318 74.8555 35.5222 75.0871C34.9125 75.3186 34.3745 75.4688 34.3266 75.4209C34.1214 75.2157 33.6391 71.0601 33.471 68.0484C33.2772 64.5765 33.0484 63.8313 32.057 63.4452C31.6155 63.2732 29.0511 61.1257 26.3097 58.6323C24.9423 57.3886 24.2869 57.0798 23.6917 57.3984C22.2038 58.1947 24.4889 60.6419 29.4425 63.5572L31.4748 64.7534V66.1717C31.4748 68.7269 32.668 75.1095 33.3365 76.1301C33.9695 77.0962 34.9186 77.298 37.5957 77.0352C40.2114 76.7781 42.9912 76.3457 45.4607 75.8109C47.5765 75.353 48.1242 75.5003 49.4995 76.8979C52.2689 79.712 56.8235 81.8437 62.0113 82.7542C66.1364 83.4782 72.3878 83.1817 76.1601 82.0833C78.0057 81.5457 81.4998 79.7437 83.2284 78.4377C84.4883 77.4858 84.9699 77.2449 85.6133 77.2449C86.0567 77.2449 88.442 77.5848 90.9139 78.0002C93.3857 78.4157 95.8863 78.7556 96.4704 78.7556C98.0618 78.7556 99.2129 78.0264 99.5366 76.8133C100.178 74.4107 100.805 70.6894 100.903 68.7053L101.021 66.3161L102.116 65.7006C104.286 64.4805 107.6 62.1435 108.374 61.2861C109.692 59.8266 109.299 58.1371 107.824 58.9258C107.552 59.0711 106.796 59.6937 106.143 60.3094C104.271 62.0751 100.359 65.1598 99.992 65.1598C99.4291 65.1598 99.2004 66.2091 99.004 69.6917C98.8378 72.6349 98.332 76.4963 98.0793 76.749C98.0305 76.7978 96.596 76.4982 94.8916 76.0835C93.187 75.6687 90.6948 75.1052 89.3532 74.8316C87.1077 74.3734 86.9251 74.2996 87.0546 73.9012C87.1319 73.6632 87.3363 72.8397 87.5089 72.0714C88.5208 67.5682 85.1277 62.4176 79.2504 59.5355L77.4985 58.6764L78.2321 55.6059C81.2939 42.787 87.1369 29.8039 94.5297 19.3915C97.2963 15.4952 99.4453 12.9754 102.927 9.54562C106.27 6.25199 108.483 4.3788 111.215 2.53043C113.602 0.915121 113.826 0.712264 112.726 1.16416C111.409 1.70475 109.255 2.91823 107.223 4.26507C98.4494 10.0778 89.9986 19.9986 83.8452 31.7099C80.429 38.2117 77.0844 46.7624 75.3906 53.3248L74.7969 55.6249L74.0018 54.789C73.5646 54.3294 72.5329 53.6343 71.7093 53.2443C70.2753 52.5652 70.102 52.5352 67.6222 52.5352C65.2427 52.5352 64.9367 52.5824 63.8534 53.1185C63.2049 53.4392 62.6645 53.682 62.6526 53.658C62.6405 53.6338 62.3555 52.4974 62.0188 51.1324C61.2855 48.1582 59.5837 43.0145 58.0493 39.1336C56.754 35.8584 53.5704 29.3097 51.8226 26.326C45.0627 14.7852 35.6377 4.99536 27.218 0.769237C25.6929 0.00355842 25.4322 -0.0985175 25.4322 0.0691635ZM47.7901 79.2482C46.9981 80.5023 44.2677 89.7629 43.0044 95.4805C42.6897 96.9048 42.4021 98.1032 42.3652 98.1435C42.3283 98.1839 41.7747 97.822 41.1353 97.339C39.3338 95.979 37.6552 95.5163 36.3386 96.017C35.0774 96.4963 32.0054 99.9036 26.6653 106.746C25.1646 108.669 23.1783 111.145 22.2517 112.249C20.5617 114.262 19.8677 115.258 19.2017 116.627C18.2474 118.589 9.13997 123.298 3.30113 124.848C0.558026 125.576 -0.0803273 125.898 0.00772136 126.51C0.117351 127.271 0.96115 127.566 2.66472 127.438C4.74897 127.282 6.42664 126.685 10.3472 124.703C13.875 122.92 16.2434 121.472 18.4278 119.763C19.1449 119.202 20.0841 118.626 20.5149 118.484C22.6032 117.795 24.0418 116.138 31.4558 105.881C34.3534 101.873 36.7855 98.6699 36.8604 98.7633C36.9353 98.857 37.5661 99.6924 38.2619 100.62C38.9576 101.548 39.9341 102.762 40.4322 103.317L41.3375 104.329L41.0516 106.81C40.3155 113.199 40.0696 117.773 40.1419 123.743L40.2149 129.778L37.5363 130.38C31.5997 131.713 25.2153 133.856 23.5197 135.084C22.1213 136.097 21.8926 136.737 21.9018 139.613C21.9064 140.978 22.1722 145.785 22.4927 150.295C22.8132 154.805 23.2144 160.729 23.3842 163.459C23.7869 169.935 23.8547 170.536 24.3715 172.205L24.8077 173.613L24.0247 176.503C22.8361 180.89 22.0652 183.062 20.6886 185.903C19.3629 188.639 18.2716 190.207 15.7326 193.025C13.6971 195.284 13.0214 196.408 13.3408 197.006C13.6477 197.579 14.7263 197.593 15.6405 197.036C17.3628 195.985 20.3133 192.226 21.6683 189.356C23.5273 185.418 25.4486 179.521 26.0278 175.976C26.3185 174.196 26.4812 173.716 26.9558 173.237C27.2722 172.918 27.5931 172.348 27.6686 171.97C27.9209 170.708 27.8104 167.281 27.3818 163.084C27.1483 160.798 26.7547 156.742 26.5067 154.072C26.2587 151.401 25.7214 146.793 25.3124 143.83C24.9035 140.868 24.5692 138.44 24.5694 138.435C24.5696 138.43 25.8563 138.421 27.4288 138.416C29.9771 138.407 30.8273 138.294 35.2514 137.379C37.9813 136.815 40.3783 136.305 40.5779 136.247C40.8668 136.162 40.9652 136.329 41.0613 137.067C42.7428 150.013 45.9398 160.559 50.5654 168.418L51.784 170.489L50.3616 172.31C48.2565 175.006 46.9191 175.82 44.9546 175.598C43.7999 175.468 43.856 175.807 45.1053 176.509C46.8472 177.488 49.7399 176.647 52.6235 174.324L53.9507 173.254L55.5265 174.751C58.0652 177.162 61.1983 178.717 64.1259 179.017C67.568 179.369 71.5481 177.773 74.7559 174.754L75.847 173.727L77.4534 174.938C79.2416 176.286 81.1674 177.278 82.4034 177.486C83.4951 177.671 84.8605 177.276 85.6871 176.538L86.3628 175.934L85.1491 176.035C84.4816 176.09 83.5799 176.069 83.1455 175.987C82.1822 175.807 80.5936 174.379 79.2284 172.467L78.2638 171.116L79.6797 168.678C84.1154 161.04 87.2072 151.902 89.1702 140.629C89.4552 138.992 89.7257 137.615 89.771 137.57C89.8163 137.524 91.3084 137.824 93.0864 138.235C97.5525 139.268 101.166 139.829 103.355 139.829H105.206L105.115 140.53C105.066 140.916 104.746 143.076 104.404 145.332C103.8 149.324 102.434 159.85 101.702 166.157C101.279 169.795 101.231 173.545 101.594 174.452C101.734 174.801 102.023 175.209 102.237 175.359C102.506 175.548 102.669 176.035 102.763 176.93C103.161 180.74 105.28 187.964 107.104 191.73C108.259 194.116 110.989 197.822 112.429 198.96C114.782 200.82 116.522 200.03 114.946 197.817C114.7 197.471 113.676 196.251 112.67 195.106C108.699 190.585 107.027 187.156 105.092 179.565C104.085 175.611 104.074 175.532 104.431 174.789C105.082 173.437 105.468 171.097 105.82 166.373C106.009 163.821 106.209 161.539 106.263 161.301C106.318 161.064 106.755 156.354 107.234 150.835C108.152 140.271 108.178 138.507 107.428 137.273C106.624 135.951 101.115 133.758 94.0994 131.968L90.4976 131.049L90.6055 128.587C90.8101 123.919 90.6953 112.089 90.4106 108.511L90.1253 104.925L91.871 102.734C92.8311 101.528 93.7213 100.347 93.8491 100.108C94.0577 99.718 94.2714 99.9442 95.9421 102.325C98.0965 105.394 105.002 114.644 106.759 116.815C108.329 118.754 109.646 119.759 110.618 119.759C111.208 119.759 111.615 119.986 112.583 120.854C113.255 121.457 114.679 122.538 115.747 123.258C117.924 124.723 124.471 127.953 126.596 128.609C129.015 129.356 131.177 129.056 131.177 127.973C131.177 127.353 130.749 127.133 128.019 126.351C123.373 125.02 119.24 123.098 114.862 120.234C112.368 118.603 111.978 118.266 111.556 117.377C111.293 116.822 110.598 115.796 110.012 115.096C109.426 114.397 107.564 112.076 105.873 109.939C101.809 104.803 97.6354 99.7938 96.5035 98.6934C94.4548 96.702 92.4623 96.6107 89.9583 98.3937L89.3426 98.8322L89.0936 97.5878C87.7433 90.8422 86.7132 86.746 85.0358 81.4531C84.447 79.5953 84.3944 79.5128 83.8223 79.5545C83.4934 79.5784 82.2687 80.144 81.1005 80.8111C76.2937 83.5566 74.2325 84.0445 67.5143 84.0262C63.5629 84.0154 62.5382 83.942 60.6085 83.5309C57.3876 82.8451 53.6991 81.5673 51.0917 80.2345C47.9884 78.6481 48.1406 78.6936 47.7901 79.2482Z" fill="#E90F89"/>
</svg>
