<svg width="175" height="200" viewBox="0 0 175 200" fill="none" xmlns="http://www.w3.org/2000/svg">
<path d="M174.759 148.214C173.516 154.015 167.858 157.686 162.068 156.473H162.035L113.396 146.05C110.453 145.428 107.934 143.592 106.397 141.003L99.0043 128.417L113.462 110.718L122.457 126.057L166.517 135.464C172.306 136.709 176.002 142.412 174.759 148.214ZM109.111 109.636C109.308 109.407 109.471 109.177 109.668 108.915C110.224 108.128 110.682 107.243 111.009 106.358C111.074 106.195 111.139 106.031 111.172 105.867C111.826 103.704 111.794 101.377 111.074 99.2461C110.714 97.1484 109.962 95.1163 108.817 93.3136L82.3878 51.1635C77.6777 43.625 67.7667 41.3635 60.2435 46.0832C57.1361 48.017 54.8138 50.9669 53.6035 54.4083L39.3749 76.6633L12.3241 67.6171C7.41772 65.9783 2.11879 68.6332 0.483316 73.5496C-1.15216 78.466 1.49731 83.7757 6.40373 85.4145L40.3889 96.7551C44.4776 98.1317 48.926 96.5256 51.2484 92.9203L61.0286 77.6138L81.0467 109.505L60.2108 134.087C58.5753 136.021 57.6595 138.479 57.6595 141.036V189.216C57.6268 195.149 62.4024 199.967 68.3228 200C74.2432 200.033 79.0515 195.247 79.0842 189.315C79.0842 189.282 79.0842 189.249 79.0842 189.184V144.936L83.9906 139.167L96.6492 124.254L104.63 114.847L109.111 109.636ZM118.728 25.467C150.293 32.7761 163.475 60.0458 149.41 80.0393C143.653 88.2333 133.48 92.7236 122.751 92.7236C119.709 92.7236 116.7 92.2975 113.756 91.4781L86.6401 48.3775C81.0467 39.4624 69.7293 36.0537 60.1454 40.3474C68.2573 27.2369 95.8641 20.1901 118.728 25.467ZM116.962 70.6653C116.864 70.567 116.765 70.4359 116.7 70.3375C115.261 68.1743 111.172 71.4847 112.415 73.3857C114.345 76.3356 122.522 78.5643 122.522 78.5643C123.046 78.7282 123.438 79.1871 123.471 79.7443V81.6453C123.504 82.1697 123.929 82.5958 124.452 82.563H127.821C128.345 82.563 128.77 82.1697 128.803 81.6453V79.9737C128.835 79.4165 129.228 78.9904 129.751 78.8921C129.751 78.8921 135.573 77.9416 137.569 76.27C140.676 73.6479 141.984 69.6492 140.643 65.9455C139.237 62.0452 129.686 58.407 129.686 58.407C129.162 58.1776 128.803 57.686 128.77 57.1288V46.1815C128.77 45.7882 129.064 45.4605 129.457 45.4605C129.555 45.4605 129.62 45.4605 129.718 45.4932L130.144 45.6243C131.419 46.0504 133.153 47.2304 134.167 48.0498C134.33 48.1809 134.494 48.3448 134.625 48.4759C135.017 48.8364 134.69 48.5414 134.821 48.6725C134.919 48.7709 135.017 48.902 135.083 49.0003C136.522 51.1635 140.611 47.8531 139.368 45.9521C137.896 43.6906 134.33 41.724 131.583 41.0029C130.961 40.839 130.34 40.7079 129.718 40.6424C129.195 40.5768 128.77 40.118 128.737 39.5935V37.6925C128.704 37.1681 128.279 36.742 127.756 36.7748H124.387C123.863 36.7748 123.438 37.1681 123.406 37.6925V39.6919C123.373 40.2491 123.013 40.7079 122.457 40.8718C122.457 40.8718 117.714 42.1829 115.686 44.0183C112.579 46.8698 111.663 51.1307 113.462 54.605C114.312 56.2766 115.653 57.6204 117.289 58.4726C118.041 58.8659 122.49 60.8325 122.49 60.8325C123.013 61.0947 123.34 61.5863 123.373 62.1435V73.0907C123.373 73.484 123.078 73.8118 122.686 73.8118C122.588 73.8118 122.522 73.8118 122.424 73.779C122.424 73.779 122.064 73.6807 121.508 73.5168C120.069 72.9924 118.728 72.2385 117.551 71.288C117.387 71.1569 117.223 70.9931 117.093 70.862C116.798 70.5014 117.093 70.8292 116.962 70.6653ZM123.471 45.8866C123.471 45.4932 123.177 45.1655 122.784 45.1655C122.686 45.1655 122.62 45.1655 122.522 45.1983C122.522 45.1983 120.298 45.7227 119.121 46.706C117.518 48.0498 117.223 50.7046 118.434 52.5729C119.415 54.0806 120.723 54.6378 122.457 55.3916L122.588 55.4572C123.078 55.6538 123.471 55.4244 123.471 54.9V45.8866ZM129.751 74.5329C129.751 74.5329 132.433 74.2379 133.611 73.3202C135.344 71.9108 135.835 69.4526 134.723 67.486C134.036 66.2733 132.564 65.29 131.223 64.6673C130.994 64.5689 129.653 63.979 129.653 63.979C129.162 63.7495 128.77 64.0117 128.77 64.5034V73.6807C128.77 74.1396 129.162 74.5001 129.62 74.5001C129.653 74.5329 129.718 74.5329 129.751 74.5329ZM43.6925 48.8692C55.01 45.4605 61.3884 33.4972 57.9866 22.1567C54.5521 10.8489 42.6131 4.42478 31.3283 7.86627C20.0109 11.275 13.6325 23.2383 17.0343 34.5788C20.4688 45.8866 32.3751 52.3107 43.6925 48.8692ZM58.052 0L54.4539 11.1111L65.5752 7.53851L58.052 0Z" fill="#E90F89"/>
</svg>
